<mxfile host="app.diagrams.net" modified="2023-03-17T08:14:23.615Z" agent="5.0 (Windows)" etag="xqppi9f2W4Q_eR3J6j3n" version="21.0.6" type="github">
  <diagram name="Страница 1" id="-NcrunfdhYhDW3yvWHeE">
    <mxGraphModel dx="2074" dy="1142" grid="1" gridSize="10" guides="1" tooltips="1" connect="1" arrows="1" fold="1" page="1" pageScale="1" pageWidth="827" pageHeight="1169" math="0" shadow="0">
      <root>
        <mxCell id="0" />
        <mxCell id="1" parent="0" />
        <mxCell id="ImyEx0b0QIhmyHLGqdYd-3" value="" style="edgeStyle=orthogonalEdgeStyle;rounded=0;orthogonalLoop=1;jettySize=auto;html=1;" parent="1" source="ImyEx0b0QIhmyHLGqdYd-1" target="ImyEx0b0QIhmyHLGqdYd-2" edge="1">
          <mxGeometry relative="1" as="geometry" />
        </mxCell>
        <mxCell id="ImyEx0b0QIhmyHLGqdYd-1" value="Start" style="ellipse;whiteSpace=wrap;html=1;" parent="1" vertex="1">
          <mxGeometry x="310" y="30" width="120" height="80" as="geometry" />
        </mxCell>
        <mxCell id="ImyEx0b0QIhmyHLGqdYd-5" value="" style="edgeStyle=orthogonalEdgeStyle;rounded=0;orthogonalLoop=1;jettySize=auto;html=1;" parent="1" source="ImyEx0b0QIhmyHLGqdYd-2" target="ImyEx0b0QIhmyHLGqdYd-8" edge="1">
          <mxGeometry relative="1" as="geometry">
            <mxPoint x="370" y="300" as="targetPoint" />
          </mxGeometry>
        </mxCell>
        <mxCell id="ImyEx0b0QIhmyHLGqdYd-2" value="&lt;div&gt;array=[]&lt;/div&gt;&lt;div&gt;arrayLangth=5&lt;br&gt;&lt;/div&gt;&lt;div&gt;i=0&lt;br&gt;&lt;/div&gt;&lt;div&gt;sum=0&lt;br&gt;&lt;/div&gt;" style="shape=parallelogram;perimeter=parallelogramPerimeter;whiteSpace=wrap;html=1;fixedSize=1;" parent="1" vertex="1">
          <mxGeometry x="295" y="160" width="150" height="70" as="geometry" />
        </mxCell>
        <mxCell id="ImyEx0b0QIhmyHLGqdYd-14" value="" style="edgeStyle=orthogonalEdgeStyle;rounded=0;orthogonalLoop=1;jettySize=auto;html=1;" parent="1" source="ImyEx0b0QIhmyHLGqdYd-4" target="ImyEx0b0QIhmyHLGqdYd-6" edge="1">
          <mxGeometry relative="1" as="geometry" />
        </mxCell>
        <mxCell id="ImyEx0b0QIhmyHLGqdYd-15" value="" style="edgeStyle=orthogonalEdgeStyle;rounded=0;orthogonalLoop=1;jettySize=auto;html=1;" parent="1" source="ImyEx0b0QIhmyHLGqdYd-4" target="ImyEx0b0QIhmyHLGqdYd-7" edge="1">
          <mxGeometry relative="1" as="geometry" />
        </mxCell>
        <mxCell id="ImyEx0b0QIhmyHLGqdYd-4" value="i%2==1" style="rhombus;whiteSpace=wrap;html=1;" parent="1" vertex="1">
          <mxGeometry x="320" y="470" width="100" height="80" as="geometry" />
        </mxCell>
        <mxCell id="QVf1NwPqlr2-Zyp8Bjgk-2" value="" style="edgeStyle=orthogonalEdgeStyle;rounded=0;orthogonalLoop=1;jettySize=auto;html=1;entryX=1;entryY=0.5;entryDx=0;entryDy=0;" parent="1" source="ImyEx0b0QIhmyHLGqdYd-6" target="ImyEx0b0QIhmyHLGqdYd-7" edge="1">
          <mxGeometry relative="1" as="geometry">
            <mxPoint x="550" y="620" as="targetPoint" />
            <Array as="points">
              <mxPoint x="560" y="630" />
            </Array>
          </mxGeometry>
        </mxCell>
        <mxCell id="ImyEx0b0QIhmyHLGqdYd-6" value="&lt;div&gt;sum+=array[i]&lt;/div&gt;" style="rounded=0;whiteSpace=wrap;html=1;" parent="1" vertex="1">
          <mxGeometry x="490" y="480" width="120" height="60" as="geometry" />
        </mxCell>
        <mxCell id="ImyEx0b0QIhmyHLGqdYd-23" value="" style="edgeStyle=orthogonalEdgeStyle;rounded=0;orthogonalLoop=1;jettySize=auto;html=1;" parent="1" source="ImyEx0b0QIhmyHLGqdYd-7" edge="1">
          <mxGeometry relative="1" as="geometry">
            <mxPoint x="310" y="350" as="targetPoint" />
            <Array as="points">
              <mxPoint x="200" y="350" />
            </Array>
          </mxGeometry>
        </mxCell>
        <mxCell id="ImyEx0b0QIhmyHLGqdYd-7" value="&#xa;i+=1&#xa;&#xa;" style="rounded=0;whiteSpace=wrap;html=1;" parent="1" vertex="1">
          <mxGeometry x="310" y="600" width="120" height="60" as="geometry" />
        </mxCell>
        <mxCell id="ImyEx0b0QIhmyHLGqdYd-13" value="" style="edgeStyle=orthogonalEdgeStyle;rounded=0;orthogonalLoop=1;jettySize=auto;html=1;" parent="1" source="ImyEx0b0QIhmyHLGqdYd-8" target="ImyEx0b0QIhmyHLGqdYd-4" edge="1">
          <mxGeometry relative="1" as="geometry" />
        </mxCell>
        <mxCell id="ImyEx0b0QIhmyHLGqdYd-24" value="" style="edgeStyle=orthogonalEdgeStyle;rounded=0;orthogonalLoop=1;jettySize=auto;html=1;entryX=0;entryY=0.5;entryDx=0;entryDy=0;" parent="1" source="ImyEx0b0QIhmyHLGqdYd-8" target="ImyEx0b0QIhmyHLGqdYd-10" edge="1">
          <mxGeometry relative="1" as="geometry" />
        </mxCell>
        <mxCell id="ImyEx0b0QIhmyHLGqdYd-8" value="i&amp;lt;=arrayLangth" style="rhombus;whiteSpace=wrap;html=1;" parent="1" vertex="1">
          <mxGeometry x="315" y="300" width="110" height="100" as="geometry" />
        </mxCell>
        <mxCell id="ImyEx0b0QIhmyHLGqdYd-25" value="" style="edgeStyle=orthogonalEdgeStyle;rounded=0;orthogonalLoop=1;jettySize=auto;html=1;" parent="1" source="ImyEx0b0QIhmyHLGqdYd-10" target="ImyEx0b0QIhmyHLGqdYd-11" edge="1">
          <mxGeometry relative="1" as="geometry" />
        </mxCell>
        <mxCell id="ImyEx0b0QIhmyHLGqdYd-10" value="sum" style="shape=document;whiteSpace=wrap;html=1;boundedLbl=1;" parent="1" vertex="1">
          <mxGeometry x="530" y="310" width="120" height="80" as="geometry" />
        </mxCell>
        <mxCell id="ImyEx0b0QIhmyHLGqdYd-11" value="end" style="ellipse;whiteSpace=wrap;html=1;" parent="1" vertex="1">
          <mxGeometry x="690" y="310" width="120" height="80" as="geometry" />
        </mxCell>
        <mxCell id="ImyEx0b0QIhmyHLGqdYd-16" value="Yes" style="text;html=1;strokeColor=none;fillColor=none;align=center;verticalAlign=middle;whiteSpace=wrap;rounded=0;" parent="1" vertex="1">
          <mxGeometry x="414" y="480" width="60" height="30" as="geometry" />
        </mxCell>
        <mxCell id="ImyEx0b0QIhmyHLGqdYd-17" value="Yes" style="text;html=1;strokeColor=none;fillColor=none;align=center;verticalAlign=middle;whiteSpace=wrap;rounded=0;" parent="1" vertex="1">
          <mxGeometry x="310" y="420" width="60" height="30" as="geometry" />
        </mxCell>
        <mxCell id="ImyEx0b0QIhmyHLGqdYd-18" value="No" style="text;html=1;strokeColor=none;fillColor=none;align=center;verticalAlign=middle;whiteSpace=wrap;rounded=0;" parent="1" vertex="1">
          <mxGeometry x="320" y="555" width="60" height="30" as="geometry" />
        </mxCell>
        <mxCell id="ImyEx0b0QIhmyHLGqdYd-21" value="No" style="text;html=1;strokeColor=none;fillColor=none;align=center;verticalAlign=middle;whiteSpace=wrap;rounded=0;" parent="1" vertex="1">
          <mxGeometry x="435" y="310" width="60" height="30" as="geometry" />
        </mxCell>
      </root>
    </mxGraphModel>
  </diagram>
</mxfile>
